<?xml version="1.0" encoding="UTF-8"?>
<svg width="37px" height="37px" viewBox="0 0 37 37" version="1.1" xmlns="http://www.w3.org/2000/svg" xmlns:xlink="http://www.w3.org/1999/xlink">
    <title>Path 7</title>
    <g id="Consumer" stroke="none" stroke-width="1" fill="none" fill-rule="evenodd">
        <path d="M0.235838724,0.716007493 C0.791229035,-0.150652417 10.2175937,-0.322812954 10.2175937,0.716007493 C10.2175937,1.75482794 10.3912186,4.23389784 10.7890914,5.85927739 C11.1869642,7.48465695 12.3751439,10.0942593 12.3751439,10.7188903 C12.3751439,11.3435214 7.26659894,14.7084964 7.26659894,15.6008862 C7.26659894,16.4932761 9.43356249,20.1437907 12.3751439,23.2123483 C15.3167253,26.2809059 19.1879317,28.784869 19.9958102,28.784869 C20.8036887,28.784869 24.4353765,24.7940079 24.9018625,24.275016 C25.3683486,23.7560242 27.7831982,24.800911 30.2570384,25.2795299 C32.7308786,25.7581487 34.9187609,25.1642681 35.5714229,25.6751017 C36.224085,26.1859352 36.224085,35.8092878 35.5714229,36.2882446 C34.9187609,36.7672013 17.688209,36.2882446 8.51627944,25.2795299 C-0.655650082,14.2708152 -0.319551588,1.5826674 0.235838724,0.716007493 Z" id="Path-7" fill="#000000"></path>
    </g>
</svg>