<svg xmlns="http://www.w3.org/2000/svg" width="619" height="417.472" viewBox="0 0 619 417.472"><defs><style>.a,.o{fill:#0e77ff;}.b{fill:#1f9bd9;}.c,.l{fill:none;}.d{fill:#65b8e5;}.e{fill:#a3d0ec;}.f,.n{fill:#f9fbff;}.g{fill:#e8a17e;}.h{fill:#d88d6c;}.i,.p{fill:#fff;}.j{fill:#161119;}.k{fill:#3e3244;}.l{stroke:#3e3244;stroke-miterlimit:10;stroke-width:5px;}.m{fill:#f27b53;opacity:0.45;}.n,.o,.p{stroke:#0e77ff;}.q,.r{fill:#26476d;}.q{opacity:0.27;}.r{opacity:0.07;}</style></defs><g transform="translate(0 0.5)"><g transform="translate(126.097 178.052)"><path class="a" d="M-373.409,108.2c2.674-3.909,10.7-13.533,8.756-17.866-4.175-9.327-37.4-16.052-68.1,20.036" transform="translate(764.781 102.442)"/><path class="a" d="M-445.948,231.347c33.223,4.236,72.445,7.68,103.9-10.31,20.841-11.917,3.736-28.659-14.9-27.937,23.515-2.824,53.365-21.244,59.921-45.476a10.377,10.377,0,0,0-7.406-12.585c-2.258-.606-12.444,1.169-14.692.93,20.111-6.813,59.009-50.474,42.457-71.975-15.122-19.646-42.316,10.775-54.41,18.039,6.857-10.885,9.287-29.62-6.477-30.412-22.577-1.129-44.029,48.717-53.732,64.073-.412-6.406.1-23.365-5.591-26.366-12.236-6.459-53.281,14.126-55.875,78.239C-453.212,178.837-456.661,213.955-445.948,231.347Z" transform="translate(765.575 -4.945)"/><path class="b" d="M-381.774,229.783c23.36-13.094,50.2-29.553,61.847-56.087,7.712-17.579-11.244-20.191-22.882-10.855,13.767-13.015,24.175-39.058,16.853-57.748a8.3,8.3,0,0,0-10.753-4.56c-1.74.686-7.437,6.676-9,7.592,9.677-13.953,13.882-60.523-6.99-66.459-19.066-5.418-22.054,27.074-26.37,37.5C-379.839,68.9-387.2,55.712-397.7,62.707c-15.047,10.022-5.1,52.263-4.02,66.747-3.316-3.918-11.058-15.056-16.145-14.276-10.938,1.678-27.508,34.445,1.35,76.871C-411.442,199.5-396.94,223.714-381.774,229.783Z" transform="translate(717.975 -41.061)"/><path class="b" d="M-238.87,190.254c5.759-26.153,11.31-57.145-.757-83.485-8-17.45-22.559-5.033-23.325,9.867-.562-18.933-13.09-44.029-31.917-50.988a8.3,8.3,0,0,0-10.558,4.993c-.642,1.757.04,10-.31,11.771-3.984-16.508-35.972-50.616-54.281-38.978-16.729,10.638,5.547,34.476,10.465,44.631-8.176-6.246-22.922-9.522-24.684,2.975-2.519,17.9,35.64,38.562,47.177,47.389-5.131-.128-18.6-1.753-21.4,2.563-6.02,9.283,7.428,43.449,58.305,50.111C-281.212,192.277-253.487,197.545-238.87,190.254Z" transform="translate(374.356 -41.055)"/></g><path class="c" d="M-333.068,88.517l-.925,7.176c2.789-.151,4.825-1.138,5.741-2.267a2.162,2.162,0,0,0,.412-2.231C-328.424,89.522-330.788,88.8-333.068,88.517Z" transform="translate(417.021 299.611)"/><g transform="translate(64.46 257.104)"><g transform="translate(0 94.339)"><path class="d" d="M-292.06,104.009c-3.422,4.219-9.81,6.689-17.026,6.822l-1.523,11.82h-28.478l-2.514-14.808c8.646-.518,24.432-4.462,37.066-24.223,5.777.877,12.236,3.263,14.418,9.482A11.015,11.015,0,0,1-292.06,104.009Zm-4.7-8.579c-1.089-3.1-5.472-4.449-9.7-4.962l-1.718,13.307c5.175-.279,8.951-2.1,10.651-4.2A4.05,4.05,0,0,0-296.761,95.43Z" transform="translate(347.991 -68.617)"/><path class="e" d="M-294.9,95.232c-.341-.049-.691-.115-1.027-.159l1.722-13.356a1.319,1.319,0,0,0-1.306-1.487h-41.373a1.475,1.475,0,0,0-1.452,1.718l6.37,37.508C-323.315,118.938-307.529,114.994-294.9,95.232Z" transform="translate(338.351 -80.23)"/></g><path class="f" d="M-325.49,147.712c-4.112-2.187-8.035-10.067-9.655-13.71s-2.094-8.008-.3-11.567c1.514-3.01,4.422-5.082,6.233-7.924a12.86,12.86,0,0,0,1.581-10.009c-1.231-4.741-5.122-8.522-6.012-13.338-1.045-5.649,2.236-11.08,3.674-16.645a26.574,26.574,0,0,0-.739-15.6c4.015,2.386,6.414,6.689,8.628,10.8,2.023,3.754,4.1,7.765,3.811,12.014-.186,2.674-1.3,5.175-2.24,7.685-1.7,4.542-2.855,9.526-1.647,14.223,1.833,7.1,8.827,12.652,8.552,19.978-.164,4.343-2.979,8.194-6.37,10.908-2.209,1.771-4.763,3.245-6.313,5.613s-1.6,6.069.792,7.574" transform="translate(349.96 -58.919)"/></g><g transform="translate(305.546 102.328)"><path class="a" d="M-376.554,30.464A95.786,95.786,0,0,0-383.6,53.08c-1.226,7.592-1.647,15.326-3.533,22.78A98.156,98.156,0,0,1-394.576,94.8a4.061,4.061,0,0,0-.549,1.757c0,1.209,1.045,2.129,2.023,2.842a54.812,54.812,0,0,0,52.378,6.237" transform="translate(395.125 -1.652)"/><ellipse class="d" cx="14.623" cy="18.181" rx="14.623" ry="18.181" transform="translate(3.673 44.071)"/><path class="g" d="M-395,59.519c1.381,7.773,2.523,16.592-2.3,22.838-1.058,1.368-2.435,2.7-2.51,4.436-.1,2.267,2.067,3.931,4.095,4.945a32.324,32.324,0,0,0,25.538,1.324,4.2,4.2,0,0,0,1.837-1.12c1.032-1.279.367-3.156-.266-4.67a56.273,56.273,0,0,1,.447-43.976" transform="translate(442.99 42.317)"/><path class="h" d="M-397.432,51.013c1.35,5.458,2.236,10.713,1.638,16.3a.7.7,0,0,0,.1.549c.177.19.487.115.731.027a22.578,22.578,0,0,0,5.175-2.377,23.063,23.063,0,0,0,7.136-8.035,23.81,23.81,0,0,0,2.47-12.36" transform="translate(444.728 48.561)"/><path class="g" d="M-395.26,30.7c-5.538,6.184-6.831,14.989-7.557,23.263-.646,7.287-1.036,14.653,0,21.895s3.577,14.409,8.26,20.031a30.66,30.66,0,0,0,6.9,6.109,17.632,17.632,0,0,0,5.79,2.581c3.949.846,8.03-.288,11.873-1.532,8.752-2.838,17.765-6.676,23.17-14.121,7.043-9.708,11.7-35.251,13.524-47.1" transform="translate(424.587 -0.833)"/><path class="h" d="M-401.448,32.963a59.422,59.422,0,0,0,29.022,13.6,102.246,102.246,0,0,0,18.77.912,32.22,32.22,0,0,0,7-.682,12.823,12.823,0,0,0,7.906-5.325,8.649,8.649,0,0,0,.124-9.23" transform="translate(419.744 4.437)"/><path class="a" d="M-337.951,28.991c-15.609-7.543-38.2-5.981-49.562.518S-403.573,41.824-409.5,55.37c-.354.81-2.4,5.79-2.094,6.618a2.388,2.388,0,0,0,1.523,1.589c14.029,5.352,26.361,6.317,41.355,7.061a52.143,52.143,0,0,0,14.918-.925c6.879,23.037,3.293,39.549-8.159,60.687,7.455,3.143,36.441,4.949,50.235-5.733a33.085,33.085,0,0,0,8.969-9.965c5.485-10.009,3.13-22.355.146-33.374-2.218-8.2-4.732-16.392-8.761-23.874-6.193-11.488-14.6-23.289-26.583-28.464" transform="translate(426.903 -23.956)"/><path class="i" d="M-396.2,42.168c1.138,3.519,2.448,6.76,5.56,8.756,3.085,1.974,7.211,1.744,10.531.19s6.476-5.454,8.8-8.287a96.2,96.2,0,0,1-24.892-.66" transform="translate(430.489 38.455)"/><g transform="translate(40.501 57.57)"><path class="j" d="M-386.2,39.238a6.923,6.923,0,0,0-6.906-.062l-.748-1.1a8.187,8.187,0,0,1,8.278-.013Z" transform="translate(393.855 -36.96)"/></g><g transform="translate(72.582 58.083)"><path class="j" d="M-396.534,38.47l-3.486-.061V37.076h3.3Z" transform="translate(400.02 -37.076)"/></g><path class="h" d="M-389.025,38.018l-4.222,12.934,6.647.539" transform="translate(432.684 24.234)"/><g transform="translate(55.641 48.545)"><path class="k" d="M-398.434,38.341a8.349,8.349,0,0,1,.837-.438c.173-.08.345-.159.518-.23l-.19.08q.651-.272,1.328-.491a15.8,15.8,0,0,1,1.691-.438c.367-.075.735-.137,1.107-.19l-.213.031a16,16,0,0,1,3.223-.106c.332.027.664.058.992.1l-.213-.027a15.767,15.767,0,0,1,3.192.775c.319.111.633.235.943.367l-.19-.084a18.786,18.786,0,0,1,3.307,1.824.808.808,0,0,0,.615.08.811.811,0,0,0,.478-.367.807.807,0,0,0,.08-.615.9.9,0,0,0-.367-.478,18.732,18.732,0,0,0-5.339-2.559,16.575,16.575,0,0,0-4.794-.651,17.219,17.219,0,0,0-3.949.518,16.517,16.517,0,0,0-2.767.965,9.927,9.927,0,0,0-1.084.545l-.013.009a.862.862,0,0,0-.367.478.806.806,0,0,0,.084.615.774.774,0,0,0,.474.367.819.819,0,0,0,.62-.08Z" transform="translate(399.638 -34.922)"/></g><g transform="translate(20.771 47.111)"><path class="k" d="M-376.556,39.548a7.31,7.31,0,0,0-.744-.584c-.155-.111-.31-.221-.469-.323l.173.115c-.394-.261-.8-.5-1.213-.722a15.2,15.2,0,0,0-1.585-.744c-.345-.142-.7-.27-1.054-.385l.2.066a15.989,15.989,0,0,0-3.147-.691q-.5-.053-1-.08l.212.009a16.285,16.285,0,0,0-3.28.181c-.332.053-.664.115-.991.19l.2-.044c-1.231.27.407,1.1-1.85.514-.208-.053,1.474-2.178,3.444-2.373a16.555,16.555,0,0,1,4.834.23,17.3,17.3,0,0,1,3.789,1.226,17.035,17.035,0,0,1,2.546,1.456,9.116,9.116,0,0,1,.965.735l.009.009a.851.851,0,0,1,.274.54.816.816,0,0,1-.19.589.792.792,0,0,1-.536.274.821.821,0,0,1-.593-.19Z" transform="translate(391.116 -34.598)"/></g><path class="l" d="M-397.852,39.754s3.865-5.542,9.522-.788" transform="translate(454.803 20.882)"/><path class="l" d="M-390.37,39.484s3.865-5.542,9.522-.788" transform="translate(414.199 19.956)"/><circle class="m" cx="5.713" cy="5.713" r="5.713" transform="translate(61.713 66.954)"/><circle class="m" cx="4.815" cy="4.815" r="4.815" transform="translate(21.5 65.63)"/><g transform="translate(16.087 47.112)"><path class="j" d="M-366.92,47.223A12.641,12.641,0,0,0-379.55,34.6a12.637,12.637,0,0,0-12.625,12.625,12.641,12.641,0,0,0,12.625,12.63A12.645,12.645,0,0,0-366.92,47.223Zm-1.456,0A11.19,11.19,0,0,1-379.55,58.4a11.186,11.186,0,0,1-11.169-11.173A11.182,11.182,0,0,1-379.55,36.054,11.186,11.186,0,0,1-368.377,47.223Z" transform="translate(392.175 -34.598)"/></g><g transform="translate(47.849 47.112)"><path class="j" d="M-374.095,47.223A12.637,12.637,0,0,0-386.72,34.6,12.641,12.641,0,0,0-399.35,47.223a12.645,12.645,0,0,0,12.629,12.63A12.641,12.641,0,0,0-374.095,47.223Zm-1.456,0A11.186,11.186,0,0,1-386.72,58.4a11.19,11.19,0,0,1-11.173-11.173A11.186,11.186,0,0,1-386.72,36.054,11.183,11.183,0,0,1-375.551,47.223Z" transform="translate(399.35 -34.598)"/></g><g transform="translate(42.744 77.768)"><g transform="translate(0 14.965)"><ellipse class="j" cx="3.436" cy="4.395" rx="3.436" ry="4.395" transform="translate(0.66 7.685) rotate(-95.513)"/></g><g transform="translate(6.712)"><path class="j" d="M-397.58,61.01a44.016,44.016,0,0,1-5.945.173l.075-1.895c22.891.912,40.5-17.579,40.669-17.765l1.386,1.3C-361.563,43-376.8,59-397.58,61.01Z" transform="translate(403.525 -41.523)"/></g></g><g transform="translate(17.542 0.932)"><path class="d" d="M-400.614,68.128c1.7-12.829,7.955-26.964,18.194-34.215,9.172-6.494,21.443-6.91,31.55-2.74,8.712,3.59,14.476,11.6,17.318,20.93,2.422,7.951,2.745,16.118,3.307,24.374.186,2.727,4.157,2.745,3.971,0-.535-7.858-.832-15.689-2.833-23.334-2.608-9.947-7.942-19.079-16.583-24.077-10.288-5.95-23.918-6.583-34.542-1.341-8.641,4.263-14.958,12.572-18.969,21.656a65.667,65.667,0,0,0-5.237,17.61c-.359,2.687,3.466,3.847,3.825,1.138Z" transform="translate(404.462 -24.166)"/><ellipse class="d" cx="14.623" cy="18.181" rx="14.623" ry="18.181" transform="translate(59.118 47.841)"/></g></g><g transform="translate(425.061 48.783)"><g transform="translate(0 0)"><rect class="n" width="128.601" height="86.163" rx="2.833"/><g transform="translate(46.444 13.9)"><path class="o" d="M-410.565,15a18.985,18.985,0,0,0-9.442,2.213,15.574,15.574,0,0,0-5.963,5.662,15.7,15.7,0,0,0-2.258,7.03,1.343,1.343,0,0,0,.456,1.186,1.75,1.75,0,0,0,1.226.5h3.289a1.985,1.985,0,0,0,1.262-.456,2.068,2.068,0,0,0,.726-1.226,10.857,10.857,0,0,1,3.82-6.344,11.155,11.155,0,0,1,6.884-2.067,12.474,12.474,0,0,1,7.335,2.143,6.734,6.734,0,0,1,3.059,5.812,8.149,8.149,0,0,1-1.567,5.007,32.18,32.18,0,0,1-4.777,4.856q-2.523,2.291-4.015,3.9a14.89,14.89,0,0,0-2.559,3.94,12.744,12.744,0,0,0-1.071,5.392v1.6a1.981,1.981,0,0,0,.611,1.452,1.98,1.98,0,0,0,1.452.611h2.829a1.988,1.988,0,0,0,1.452-.611,1.985,1.985,0,0,0,.615-1.452V53.07a9.125,9.125,0,0,1,1.6-5.5,31.307,31.307,0,0,1,4.892-5.047,41.407,41.407,0,0,0,3.94-3.71,14.641,14.641,0,0,0,2.519-3.975,13.158,13.158,0,0,0,1.036-5.387,12.858,12.858,0,0,0-2.258-7.379,15.151,15.151,0,0,0-6.189-5.2A20.492,20.492,0,0,0-410.565,15Zm4.126,52.214V62.858a1.981,1.981,0,0,0-.611-1.452A2,2,0,0,0-408.5,60.8h-4.36a1.981,1.981,0,0,0-1.452.611,1.981,1.981,0,0,0-.611,1.452v4.356a1.991,1.991,0,0,0,.611,1.456,1.981,1.981,0,0,0,1.452.611h4.36a2,2,0,0,0,1.452-.611A1.991,1.991,0,0,0-406.439,67.214Z" transform="translate(428.238 -15)"/></g></g></g><g transform="translate(197.049)"><path class="p" d="M-273.539.84h-100.47A12.794,12.794,0,0,0-386.8,13.633V72.505A12.794,12.794,0,0,0-374.009,85.3h71.263l27,19.164V85.3h2.209a12.794,12.794,0,0,0,12.794-12.793V13.633A12.794,12.794,0,0,0-273.539.84Z" transform="translate(386.803 -0.84)"/><g transform="translate(12.24 9.686)"><path class="a" d="M-361.312,3.028" transform="translate(362.287 -3.028)"/><g transform="translate(0 12.121)"><path class="a" d="M-283.43,5.766h-99.634a1.01,1.01,0,0,0,0,2.019h99.634a1.01,1.01,0,0,0,0-2.019Z" transform="translate(384.038 -5.766)"/></g><g transform="translate(0 25.255)"><path class="a" d="M-283.43,8.733h-99.634a1.008,1.008,0,0,0,0,2.014h99.634a1.008,1.008,0,0,0,0-2.014Z" transform="translate(384.038 -8.733)"/></g><g transform="translate(0 38.385)"><path class="a" d="M-306.473,11.7h-69.868a1.008,1.008,0,0,0,0,2.014h69.868a1.008,1.008,0,0,0,0-2.014Z" transform="translate(377.315 -11.699)"/></g><g transform="translate(0 51.515)"><path class="a" d="M-306.473,14.665h-69.868a1.008,1.008,0,0,0,0,2.014h69.868a1.008,1.008,0,0,0,0-2.014Z" transform="translate(377.315 -14.665)"/></g></g></g><g transform="translate(183.982 105.898)"><path class="p" d="M-300.3,24.762h-65.269a8.314,8.314,0,0,0-8.309,8.314V71.319a8.314,8.314,0,0,0,8.309,8.314h46.3L-301.73,92.08V79.632h1.434a8.315,8.315,0,0,0,8.314-8.314V33.076A8.315,8.315,0,0,0-300.3,24.762Z" transform="translate(373.874 -24.762)"/><g transform="translate(7.951 6.29)"><path class="a" d="M-357.314,26.183" transform="translate(357.947 -26.183)"/><g transform="translate(0 7.88)"><path class="a" d="M-306.721,27.963h-64.724a.653.653,0,0,0,0,1.306h64.724a.653.653,0,0,0,0-1.306Z" transform="translate(372.078 -27.963)"/></g><g transform="translate(0 16.406)"><path class="a" d="M-306.721,29.889h-64.724a.656.656,0,0,0,0,1.31h64.724a.656.656,0,0,0,0-1.31Z" transform="translate(372.078 -29.889)"/></g><g transform="translate(0 24.936)"><path class="a" d="M-321.69,31.816h-45.388a.656.656,0,0,0,0,1.31h45.388a.656.656,0,0,0,0-1.31Z" transform="translate(367.71 -31.816)"/></g><g transform="translate(0 33.467)"><path class="a" d="M-321.69,33.743h-45.388a.656.656,0,0,0,0,1.31h45.388a.656.656,0,0,0,0-1.31Z" transform="translate(367.71 -33.743)"/></g></g></g><g transform="translate(261.211 227.002)"><path class="e" d="M-341.38,52.973c19.15.81,39.872,6.591,53.892,19.664a9.829,9.829,0,0,1,2.869,3.856c.757,2.244-.018,4.684-.735,6.941a141.638,141.638,0,0,0-1.266,80.935c1.957,6.893,4.449,13.705,5.122,20.837s-.744,14.856-5.675,20.053a26.841,26.841,0,0,1-7.53,5.29c-15.33,7.747-33.329,7.459-50.492,6.746-10.584-.438-21.271-.992-31.457-3.887s-19.969-8.367-26.158-16.959c-6.388-8.867-8.384-20.129-9.2-31.023-1.842-24.746,1.514-49.562,1.979-74.37.137-7.22-.013-14.653-2.829-21.3,13.077-9.04,28.7-14.533,44.295-17.636,3.346,4.458,8.048,6.49,13.617,6.773s9.783-1.824,13.568-5.919" transform="translate(458.584 -52.119)"/><path class="d" d="M-281.882,139.482c-.62-7.136,4.444-15.388,2.638-22.28-4.586-17.517-13.232-34.556-11.372-52.648-3.931,1.97-7.495,4.577-9.522,8.46a23.267,23.267,0,0,0-2.134,10.531c-.08,7.229,1.266,14.4,1.554,21.625s-.62,14.839-4.688,20.753c-4.7,6.831-12.793,10.275-20.691,12.391a157.022,157.022,0,0,1-16.162,3.254c-6.237.987-12.585,1.811-18.849,1s-12.519-3.413-16.636-8.3c-6.525-7.76-6.33-19.026-7.5-29.19a91.318,91.318,0,0,0-9.867-31.97c-1.563-2.966-3.4-5.958-6.224-7.7l-.022-.013c-.969,18.119-11.456,37.145-10.213,55.22.748,10.9,11.766,21.244,17.663,30.107,5.715,8.6,14.75,14.068,24.157,16.963s19.279,3.444,29.049,3.887c15.848.713,32.47,1,46.627-6.746a24.982,24.982,0,0,0,6.955-5.29C-282.573,154.334-281.263,146.613-281.882,139.482Z" transform="translate(450.858 -9.507)"/><path class="e" d="M-340.786,54.992c5.914,26.3.819,57.323-5.75,83.463-1.952,7.765-1.541,16.277,1.244,20.226,2.882,4.09,7.853,6.53,12.395,8.623,10.558,4.865,17.893,10.607,25.954,18.986,3.227,3.356,6.189,7.14,7.583,11.585s.992,9.668-1.979,13.254c-2.842,3.431-7.534,4.852-11.988,4.847s-8.8-1.24-13.134-2.253a137.9,137.9,0,0,0-22.1-3.311c-6.437-.438-12.988-.434-19.181-2.249a36.838,36.838,0,0,1-21.023-16.778,44,44,0,0,1-5.48-26.534,91.775,91.775,0,0,1,3.015-14.44c5.29-19.69,12.581-36.928,19.261-56.189,2.736-7.884,7.76-16.782,12.576-23.595s10.381-14.232,18.606-15.635" transform="translate(394.483 -42.274)"/><path class="g" d="M-358.28,88.959s-17.6-4.369-24.188-.6-16.587,9.279-16.291,16.286l0,2.873s47.189,1.377,51.023-2.873" transform="translate(462.588 66.82)"/><path class="e" d="M-370.077,54.545c8.637,1,18.079,11.063,24.055,19.766s10.045,18.539,14.064,28.3l22.581,54.808c2.333,5.666,4.679,11.377,5.812,17.4a45.021,45.021,0,0,1,.252,15.175,24.462,24.462,0,0,1-4.476,11.514c-3.639,4.63-9.385,6.986-14.887,9.079-11.616,4.414-23.533,8.557-35.932,9.411a138.855,138.855,0,0,1-14.684-.022c-13.515-.491-27.092-.992-40.394-3.457a6.15,6.15,0,0,1-2.718-.978,6.3,6.3,0,0,1-1.665-2.483l-4.011-8.774a10.614,10.614,0,0,1-1.368-5.144c.19-2.4,1.957-4.352,3.727-5.989A59.194,59.194,0,0,1-403.8,182.63c11.983-5.379,25.671-6.724,36.933-13.488a17.467,17.467,0,0,0,3.785-2.882c4.152-4.409,3.9-11.505,1.576-17.092s-3.958-10.921-6.246-16.53c-5.082-12.466-7.623-20.6-7.9-31.258-.4-15.171.739-32.453,5.582-46.835" transform="translate(526.976 -43.806)"/></g><rect class="a" width="611.567" height="11.495" rx="1.248" transform="translate(0 405.477)"/><g transform="translate(128.695 278.332)"><rect class="a" width="214.647" height="5.34" rx="0.206" transform="translate(104.011 121.805)"/><path class="a" d="M-195.685,190.859H-378.812l-8.847-127.145H-208.2Z" transform="translate(393.887 -63.714)"/><path class="f" d="M-194.278,190.859H-377.405l-8.847-127.145h179.459Z" transform="translate(386.252 -63.714)"/><circle class="q" cx="10.935" cy="10.935" r="10.935" transform="translate(85.052 52.637)"/><path class="r" d="M-386.252,68.679l7.309,105.061h183.128l-2.444-24.834C-294.648,136.444-361.037,89.427-386.252,68.679Z" transform="translate(387.789 -46.702)"/></g></g></svg>