<?xml version="1.0" encoding="UTF-8"?>
<svg width="771px" height="724px" viewBox="0 0 771 724" version="1.1" xmlns="http://www.w3.org/2000/svg" xmlns:xlink="http://www.w3.org/1999/xlink">
    <title>banner</title>
    <defs>
        <rect id="path-1" x="0" y="0" width="771" height="724"></rect>
        <linearGradient x1="50%" y1="0%" x2="50%" y2="100%" id="linearGradient-3">
            <stop stop-color="#6C63FF" offset="0%"></stop>
            <stop stop-color="#C77CF1" offset="100%"></stop>
        </linearGradient>
        <linearGradient x1="50%" y1="0%" x2="50%" y2="100%" id="linearGradient-4">
            <stop stop-color="#6C63FF" offset="0%"></stop>
            <stop stop-color="#C77CF1" offset="100%"></stop>
        </linearGradient>
        <linearGradient x1="50%" y1="100%" x2="50%" y2="0%" id="linearGradient-5">
            <stop stop-color="#808080" stop-opacity="0.251" offset="0%"></stop>
            <stop stop-color="#808080" stop-opacity="0.122" offset="54%"></stop>
            <stop stop-color="#808080" stop-opacity="0.102" offset="100%"></stop>
        </linearGradient>
        <linearGradient x1="50%" y1="0%" x2="50%" y2="100%" id="linearGradient-6">
            <stop stop-color="#FDDB71" offset="0%"></stop>
            <stop stop-color="#EE7A37" offset="100%"></stop>
        </linearGradient>
        <linearGradient x1="50%" y1="0%" x2="50%" y2="100%" id="linearGradient-7">
            <stop stop-color="#FDDB71" offset="0%"></stop>
            <stop stop-color="#EE7A37" offset="100%"></stop>
        </linearGradient>
    </defs>
    <g id="Consumer" stroke="none" stroke-width="1" fill="none" fill-rule="evenodd">
        <g id="banner">
            <mask id="mask-2" fill="white">
                <use xlink:href="#path-1"></use>
            </mask>
            <g id="Mask"></g>
            <g mask="url(#mask-2)" fill-rule="nonzero">
                <path d="M1068.062,522.663 C1068.062,565.48 832.369,723.153 538.013,723.153 C243.657,723.153 11.95,555.125 11.95,512.308 C11.95,469.491 243.658,568.076 538.013,568.076 C832.368,568.076 1068.062,479.807 1068.062,522.663 Z" id="Path" fill="url(#linearGradient-3)"></path>
                <path d="M1070.986,507.29 C1070.339,525.085 1060.429,542.783 1042.345,555.28 C1023.161,568.52 997.434,575.487 971.021,579.936 C966.891,580.631 962.741,581.258 958.601,581.866 C956.488,582.155 954.384,582.445 952.29,582.715 C893.49,590.435 833.459,591.915 773.706,593.33 C711.206,594.874 648.641,596.399 586.07,597.19 L573.66,597.335 C478.723,598.358 383.824,597.499 289.234,592.114 C259.879,590.454 230.234,588.254 201.129,584.548 C196.979667,584.04 192.843,583.483667 188.719,582.879 C150.119,577.35 112.667,568.867 78.544,555.096 C70.4903943,551.881911 62.6126915,548.243481 54.944,544.196 C33.508,532.815 15.433,518.427 6.488,500.77 C1.28519811,490.417961 -0.85726183,478.796781 0.312,467.27 C0.694724536,463.078938 1.41438457,458.92551 2.464,454.85 C5.15359883,444.762989 9.25693689,435.107283 14.652,426.17 C28.587,402.605 49.518,381.481 67.563,359.353 C106.086,312.193 131.176,252.604 95.625,204.267 C85.425,190.381 70.68,178.212 62.371,163.689 C57.9255146,155.842089 55.1523424,147.159966 54.226,138.189 C53.7750609,134.065315 53.6043358,129.915792 53.715,125.769 C54.1090299,116.084289 55.3196589,106.450104 57.334,96.969 C63.124,67.324 73.942,35.363 107.35,16.869 C130.15,4.247 159.219,0.329 188.69,1.069 C192.823333,1.16566667 196.96,1.35866667 201.1,1.648 C212.4,2.391 223.633,3.761 234.48,5.508 C301.49,16.208 363.337,38.569 425.773,58.757 C473.309,74.12 522.544,88.489 573.631,95.34 C577.761,95.89 581.891,96.402 586.041,96.845 C598.017,98.157 610.099,99.026 622.277,99.383 C682.889,101.12 753.605,87.996 793.855,53.912 C832.735,20.967 905.655,18.312 958.572,37.989 L959.363,38.289 C963.345,39.807 967.205,41.4403333 970.943,43.189 C1009.943,61.524 1036.062,92.925 1039.743,125.784 C1040.20429,129.865039 1040.31403,133.97817 1040.071,138.078 C1040.07615,138.119508 1040.07615,138.161492 1040.071,138.203 C1037.543,178.627 1004.501,212.576 970.948,246.583 C966.798,250.783 962.639,254.983 958.528,259.205 C947.643,270.38 937.095,281.641 927.947,293.231 C923.770534,298.483718 919.929574,303.994661 916.447,309.731 C913.245386,315.022358 910.510399,320.582339 908.273,326.348 C905.913473,332.31699 904.3969,338.585557 903.767,344.973 C902.826251,354.128571 904.49921,363.363302 908.592,371.607 L908.679,371.8 C917.634,389.556 936.587,402.14 958.531,413.3 C962.574,415.365 966.731,417.372 970.951,419.36 C994.751,430.593 1020.388,441.024 1039.881,454.892 C1045.13598,458.546798 1050.04005,462.6819 1054.53,467.244 C1056.35768,469.136171 1058.08409,471.123609 1059.702,473.198 C1066.81965,482.191199 1070.78032,493.276595 1070.973,504.744 C1070.986,505.052 1070.986,506.711 1070.986,507.29 Z" id="Path" fill="url(#linearGradient-4)"></path>
                <path d="M1040.126,138.098 C1040.13085,138.139526 1040.13085,138.181474 1040.126,138.223 L54.227,138.223 C53.7764892,134.099282 53.6057652,129.949789 53.716,125.803 L1039.798,125.803 C1040.25166,129.884034 1040.36909,133.997171 1040.126,138.097 L1040.126,138.098 Z" id="Path" fill="#3F3D56"></path>
                <circle id="Oval" fill="#E7EFFD" cx="232.917" cy="70.297" r="3.619"></circle>
                <circle id="Oval" fill="#E7EFFD" cx="117.02" cy="63.05" r="3.619"></circle>
                <circle id="Oval" fill="#E7EFFD" cx="273.795" cy="70.297" r="1.554"></circle>
                <circle id="Oval" fill="#E7EFFD" cx="157.377" cy="66.678" r="1.554"></circle>
                <circle id="Oval" fill="#E7EFFD" cx="155.833" cy="175.193" r="1.554"></circle>
                <circle id="Oval" fill="#E7EFFD" cx="346.228" cy="94.615" r="1.554"></circle>
                <path d="M1070.986,505.573 L1070.986,507.291 C1070.494,525.221 1060.564,543.102 1042.345,555.691 C1023.161,568.931 997.434,575.898 971.021,580.347 C966.891,581.042 962.741,581.669 958.601,582.277 C956.488,582.566 954.384,582.856 952.29,583.126 C937.815,585.056 923.263,586.533 908.662,587.768 C889.072,589.428 869.386,590.576 849.681,591.425 C824.381,592.535 799.028,593.162 773.706,593.789 C724.206,595.005 674.677,596.221 625.095,597.06 L607.503,597.349 L586.041,597.638 L573.631,597.783 C495.465,598.613 417.416,598.188 339.501,595.004 C334.315667,594.798 329.14,594.572667 323.974,594.328 C312.394,593.82 300.814,593.231333 289.234,592.562 C266.026,591.25 242.634,589.59 219.493,587.129 C213.355667,586.485667 207.244,585.774667 201.158,584.996 C197.008667,584.488 192.872,583.931667 188.748,583.327 C184.154667,582.683667 179.580667,581.983667 175.026,581.227 C141.251,575.707 108.643,567.717 78.574,555.539 C70.5117772,552.304281 62.6234338,548.652004 54.941,544.597 L54.941,374.756 C59.226,369.786 63.481,364.816 67.573,359.789 C72.495,353.748 77.223,347.524 81.566,341.135 L174.979,341.135 L174.979,283.573 L339.512,283.573 L339.512,410.123 L607.504,410.123 L607.504,309.763 L916.692,309.763 C913.550138,314.884233 910.840752,320.258516 908.592,325.83 L908.592,326.37 L908.241,326.37 C905.881473,332.33899 904.3649,338.607557 903.735,344.995 C902.794251,354.150571 904.46721,363.385302 908.56,371.629 L908.56,372.034 L908.647,372.227 C917.602,389.983 936.555,402.567 958.499,413.727 C962.542,415.792 966.699,417.799 970.919,419.787 C994.475,430.904 1019.854,441.249 1039.27,454.913 L1039.849,455.318 C1044.9613,458.86412 1049.74454,462.862538 1054.141,467.265 C1054.286,467.4 1054.411,467.535 1054.541,467.67 C1056.36874,469.562122 1058.09515,471.549563 1059.713,473.624 C1066.74338,482.50977 1070.69867,493.437963 1070.986,504.765 C1070.986,505.052 1070.986,505.312 1070.986,505.573 Z" id="Path" fill="#6C63FF"></path>
                <path d="M1070.986,505.573 L1070.986,507.291 C1070.494,525.221 1060.564,543.102 1042.345,555.691 C1023.161,568.931 997.434,575.898 971.021,580.347 C966.891,581.042 962.741,581.669 958.601,582.277 C956.488,582.566 954.384,582.856 952.29,583.126 C937.815,585.056 923.263,586.533 908.662,587.768 C889.072,589.428 869.386,590.576 849.681,591.425 C824.381,592.535 799.028,593.162 773.706,593.789 C724.206,595.005 674.677,596.221 625.095,597.06 L607.503,597.349 L586.041,597.638 L573.631,597.783 C495.465,598.613 417.416,598.188 339.501,595.004 C334.315667,594.798 329.14,594.572667 323.974,594.328 C312.394,593.82 300.814,593.231333 289.234,592.562 C266.026,591.25 242.634,589.59 219.493,587.129 C213.355667,586.485667 207.244,585.774667 201.158,584.996 C197.008667,584.488 192.872,583.931667 188.748,583.327 C184.154667,582.683667 179.580667,581.983667 175.026,581.227 C141.251,575.707 108.643,567.717 78.574,555.539 C70.5117772,552.304281 62.6234338,548.652004 54.941,544.597 L54.941,374.756 C59.226,369.786 63.481,364.816 67.573,359.789 C72.495,353.748 77.223,347.524 81.566,341.135 L174.979,341.135 L174.979,283.573 L339.512,283.573 L339.512,410.123 L607.504,410.123 L607.504,309.763 L916.692,309.763 C913.550138,314.884233 910.840752,320.258516 908.592,325.83 L908.592,326.37 L908.241,326.37 C905.881473,332.33899 904.3649,338.607557 903.735,344.995 C902.794251,354.150571 904.46721,363.385302 908.56,371.629 L908.56,372.034 L908.647,372.227 C917.602,389.983 936.555,402.567 958.499,413.727 C962.542,415.792 966.699,417.799 970.919,419.787 C994.475,430.904 1019.854,441.249 1039.27,454.913 L1039.849,455.318 C1044.9613,458.86412 1049.74454,462.862538 1054.141,467.265 C1054.286,467.4 1054.411,467.535 1054.541,467.67 C1056.36874,469.562122 1058.09515,471.549563 1059.713,473.624 C1066.74338,482.50977 1070.69867,493.437963 1070.986,504.765 C1070.986,505.052 1070.986,505.312 1070.986,505.573 Z" id="Path" fill="#000000" opacity="0.3"></path>
                <rect id="Rectangle" fill="#000000" opacity="0.4" x="85.628" y="364.604" width="27.599" height="18.625"></rect>
                <rect id="Rectangle" fill="#000000" opacity="0.4" x="129.787" y="364.604" width="27.599" height="18.625"></rect>
                <rect id="Rectangle" fill="#000000" opacity="0.4" x="636.83" y="326.323" width="27.599" height="18.625"></rect>
                <rect id="Rectangle" fill="#000000" opacity="0.4" x="711.338" y="326.323" width="27.599" height="18.625"></rect>
                <rect id="Rectangle" fill="#000000" opacity="0.4" x="636.83" y="383.239" width="27.599" height="18.625"></rect>
                <rect id="Rectangle" fill="#000000" opacity="0.4" x="711.338" y="383.239" width="27.599" height="18.625"></rect>
                <rect id="Rectangle" fill="#000000" opacity="0.4" x="636.83" y="440.145" width="27.599" height="18.625"></rect>
                <rect id="Rectangle" fill="#000000" opacity="0.4" x="711.338" y="440.145" width="27.599" height="18.625"></rect>
                <rect id="Rectangle" fill="#000000" opacity="0.4" x="636.83" y="497.061" width="27.599" height="18.625"></rect>
                <rect id="Rectangle" fill="#000000" opacity="0.4" x="711.338" y="497.061" width="27.599" height="18.625"></rect>
                <rect id="Rectangle" fill="#000000" opacity="0.4" x="636.83" y="553.977" width="27.599" height="18.625"></rect>
                <rect id="Rectangle" fill="#000000" opacity="0.4" x="711.338" y="553.977" width="27.599" height="18.625"></rect>
                <rect id="Rectangle" fill="#000000" opacity="0.4" x="238.784" y="304.591" width="27.599" height="18.625"></rect>
                <rect id="Rectangle" fill="#6C63FF" x="238.784" y="346.346" width="27.599" height="18.625"></rect>
                <rect id="Rectangle" fill="#000000" opacity="0.4" x="238.784" y="388.093" width="27.599" height="18.625"></rect>
                <rect id="Rectangle" fill="#000000" opacity="0.4" x="238.784" y="429.848" width="27.599" height="18.625"></rect>
                <rect id="Rectangle" fill="#000000" opacity="0.4" x="238.784" y="471.594" width="27.599" height="18.625"></rect>
                <rect id="Rectangle" fill="#000000" opacity="0.4" x="238.784" y="513.35" width="27.599" height="18.625"></rect>
                <rect id="Rectangle" fill="#000000" opacity="0.4" x="238.784" y="555.096" width="27.599" height="18.625"></rect>
                <rect id="Rectangle" fill="#000000" opacity="0.4" x="85.628" y="413.279" width="27.599" height="18.625"></rect>
                <rect id="Rectangle" fill="#000000" opacity="0.4" x="129.787" y="413.279" width="27.599" height="18.625"></rect>
                <rect id="Rectangle" fill="#000000" opacity="0.4" x="85.628" y="461.954" width="27.599" height="18.625"></rect>
                <rect id="Rectangle" fill="#000000" opacity="0.4" x="129.787" y="461.954" width="27.599" height="18.625"></rect>
                <rect id="Rectangle" fill="#000000" opacity="0.4" x="85.628" y="510.629" width="27.599" height="18.625"></rect>
                <rect id="Rectangle" fill="#000000" opacity="0.4" x="129.787" y="510.629" width="27.599" height="18.625"></rect>
                <rect id="Rectangle" fill="#000000" opacity="0.4" x="394.691" y="431.827" width="137.977" height="16.646"></rect>
                <rect id="Rectangle" fill="#000000" opacity="0.4" x="394.691" y="484.941" width="137.977" height="16.646"></rect>
                <rect id="Rectangle" fill="#000000" opacity="0.4" x="394.691" y="538.064" width="137.977" height="16.646"></rect>
                <path d="M201.101,1.666 L201.101,584.529 C196.951667,584.021 192.815,583.464667 188.691,582.86 L188.691,1.086 C192.831,1.166 196.961,1.376 201.101,1.666 Z" id="Path" fill="#3F3D56"></path>
                <path d="M586.042,96.849 L586.042,597.209 L573.632,597.354 L573.632,95.329 C577.765333,95.889 581.902,96.3956667 586.042,96.849 Z" id="Path" fill="#3F3D56"></path>
                <path d="M1054.533,467.262 L0.312,467.262 C0.694724536,463.070938 1.41438457,458.91751 2.464,454.842 L1039.922,454.842 C1045.1706,458.514813 1050.06214,462.673124 1054.533,467.262 L1054.533,467.262 Z" id="Path" fill="#3F3D56"></path>
                <polygon id="Path" fill="#E7EFFD" points="325.567 222.768 323.193 222.768 323.193 220.394 322.768 220.394 322.768 222.768 320.395 222.768 320.395 223.193 322.769 223.193 322.769 225.567 323.194 225.567 323.194 223.193 325.568 223.193"></polygon>
                <polygon id="Path" fill="#E7EFFD" points="381.798 163.825 379.424 163.825 379.424 161.451 378.986 161.451 378.986 163.825 376.626 163.825 376.626 164.259 378.986 164.259 378.986 166.623 379.42 166.623 379.42 164.259 381.794 164.259"></polygon>
                <circle id="Oval" fill="#E7EFFD" cx="378.18" cy="315.554" r="1.554"></circle>
                <circle id="Oval" fill="#E7EFFD" cx="732.501" cy="176.747" r="1.554"></circle>
                <circle id="Oval" fill="#E7EFFD" cx="644.116" cy="263.655" r="1.554"></circle>
                <path d="M690.333,525.162 C690.333,525.162 657.224,533.172 644.119,548.162 C639.728,553.17 633.219,556.779 626.488,559.356 L626.488,536.746 C634.063,524.027 641.696,509.88 641.696,509.88 C642.043,509.185 644.803,499.429 644.803,499.429 C651.018,494.546 644.456,477.485 644.456,477.485 C644.456,477.485 648.256,466.685 646.183,464.593 C644.11,462.501 645.836,456.931 647.563,454.493 C649.29,452.055 648.943,448.915 648.943,446.831 C648.943,444.747 646.183,441.601 641.696,439.864 C637.209,438.127 642.043,435.338 644.803,434.634 C647.563,433.93 648.258,427.319 645.15,423.834 C642.042,420.349 645.497,418.266 647.215,414.434 C648.933,410.602 641.666,411.298 641.666,411.298 L641.666,376.069 L641.666,376.069 C641.666,376.069 639.591,364.576 637.526,344.369 C635.461,324.162 627.519,322.077 627.519,322.077 C623.264935,320.755885 619.113748,319.12382 615.099,317.194 C610.873403,315.213059 606.491949,313.583225 601.999,312.321 C601.999,312.321 592.687,312.321 585.092,309.986 C577.497,307.651 573.56,307.486 573.56,307.486 L572.315,306.868 C562.975327,302.118314 555.576362,294.270766 551.384,284.668 C551.172,284.185 550.979,283.703 550.784,283.24 C552.846284,280.980091 554.6911,278.530939 556.294,275.925 L556.294,279.959 L556.294,279.959 L556.294,280.046 C561.794,270.328 577.756,268.109 579.271,257.011 C579.339939,256.505562 579.37535,255.996115 579.377,255.486 L579.377,254.299 C579.177,251.199 578.113,248.113 577.91,244.987 C577.8423,244.090944 577.8423,243.191056 577.91,242.295 L577.91,242.353 C578.624,233.736 585.119,226.237 588.091,217.871 C588.890558,215.620551 589.412418,213.280914 589.645,210.904 L589.645,210.836 C589.722,210.122 589.77,209.398 589.79,208.674 L589.79,206.638 C589.607018,197.640612 585.712869,189.119084 579.03,183.092 C573.53,178.315 566.263,175.314 562.451,169.07 C560.675,166.17 559.807,162.74 557.867,159.941 C554.219,154.653 547.522,152.501 541.182,151.741 C534.842,150.981 528.328,151.23 522.268,149.241 C517.968,147.832 514.068,145.333 509.723,144.078 C500.033546,141.485231 489.753618,145.191589 483.948,153.371 C481.661,156.71 480.165,160.705 477.077,163.311 C470.756,168.657 460.035,166.341 454.496,172.498 C451.456,175.885 451.109,180.498 451.476,185.207 L451.476,185.381 C451.492683,185.745906 451.528063,186.109717 451.582,186.471 L451.582,186.982 C451.572337,187.167899 451.595352,187.354052 451.65,187.532 C451.843,189.221 452.084,190.9 452.297,192.521 C452.311675,192.770135 452.340723,193.018214 452.384,193.264 L452.558,194.779 C452.572154,195.147158 452.605533,195.514325 452.658,195.879 C452.697,196.246 452.726,196.844 452.758,197.249 C452.760183,197.61033 452.782886,197.971245 452.826,198.33 C453.444756,211.190178 450.718371,223.991059 444.913,235.483 C439.692,245.722 431.934,255.159 430.583,266.595 C430.372965,268.468985 430.321448,270.357351 430.429,272.24 L430.429,272.906 C430.429,273.128 430.487,273.582 430.516,273.919 C430.545,274.256 430.593,274.701 430.641,275.087 C430.655722,275.310633 430.684782,275.53309 430.728,275.753 C430.796,276.264 430.873,276.776 430.96,277.297 L431.018,277.625 C432.388,285.425 435.496,293.065 437.146,300.94 C437.764615,303.844257 438.177309,306.788585 438.381,309.751 C438.376453,309.770066 438.376453,309.789934 438.381,309.809 C438.439,310.774 438.487,311.691 438.516,312.636 L438.516,316.496 C435.896416,317.502506 433.210755,318.327783 430.478,318.966 C425.653,319.661 411.496,332.206 412.529,335.371 C413.562,338.536 406.199,360.461 405.996,361.127 L405.996,361.127 L394.416,441.227 C394.416,441.227 388.269,447.152 390.189,450.983 C392.109,454.814 389.813,461.434 389.813,461.434 C389.813,461.434 379.43,465.96 381.736,468.749 C384.042,471.538 382.991,476.759 381.408,480.242 C379.825,483.725 377.23,489.998 381.408,491.042 C385.586,492.086 382.122,505.681 382.122,505.681 C382.122,505.681 396.684,504.002 395.632,512.648 C395.285,515.398 405.813,522.964 410.204,525.994 L410.204,567.624 C404.323102,566.085818 398.560006,564.128137 392.959,561.766 C383.994,557.587 333.63,549.578 322.591,573.616 C311.552,597.654 337.771,629.702 344.323,633.186 C344.323,633.186 350.538,638.059 351.918,640.501 C353.298,642.943 361.23,643.637 361.23,643.637 C361.23,643.637 369.51,647.497 371.575,649.553 C373.1,651.097 385.712,655.102 400.66,658.238 L400.66,658.238 C400.66,658.238 388.588,686.03 408.284,683.743 C427.98,681.456 437.572,671.758 451.458,671.758 C457.007,671.758 467.313,670.976 477.687,670.05 C480.29287,670.510966 482.870376,671.119951 485.407,671.874 C491.251653,673.711562 497.253964,675.003749 503.337,675.734 C503.337,675.734 518.864,684.091 527.144,681.997 C527.826665,681.804798 528.463422,681.476555 529.016,681.032 L529.209,681.032 C530.714,680.656 532.423,679.102 534.198,676.757 C544.552,677.819 556.398,679.324 560.798,681.042 C569.377,684.352 630.742,679.768 630.742,679.768 C630.742,679.768 670.384,680.55 681.742,683.985 C693.1,687.42 689.066,648.907 668.106,644.574 C662.511393,643.451985 656.819007,642.889547 651.113,642.895 C652.564758,641.397861 653.89121,639.784112 655.079,638.07 C662.625,637.385 667.624,636.96 667.624,636.96 C667.624,636.96 687.624,627.204 699.016,621.279 C706.286362,617.324422 712.816329,612.139696 718.316,605.955 C718.316,605.955 728.316,599.683 732.453,597.27 C736.59,594.857 738.658,586.819 738.658,586.819 C770.011,515.744 690.333,525.162 690.333,525.162 Z M600.507,436.011 L600.507,432.498 C601.626,433.289 601.462,434.534 600.507,435.998 L600.507,436.011 Z M600.835,460.648 C601.675,461.748 602.485,462.748 603.064,463.548 C605.293,466.448 601.264,467.794 601.549,472.59 C601.617,473.661 601.713,475.157 601.81,476.817 L601.81,476.817 C601.385,469.898 601.038,464.204 600.835,460.643 L600.835,460.648 Z" id="Shape" fill="url(#linearGradient-5)"></path>
                <path d="M421.286,570.585 C421.286,570.585 401.986,566.098 393.002,561.958 C384.018,557.818 333.673,549.886 322.631,573.697 C311.589,597.508 337.811,629.223 344.363,632.678 C350.915,636.133 414.731,588.853 414.731,588.853 L465.066,610.083 L474.716,577.138 L421.286,570.585 Z" id="Path" fill="#65617D"></path>
                <rect id="Rectangle" fill="#65617D" x="442.584" y="577.137" width="219.124" height="76.226" rx="36.83"></rect>
                <path d="M661.708017,615.245 C661.715141,622.742682 659.505923,630.075199 655.358,636.321 C653.947547,638.437504 652.331357,640.409423 650.533,642.208 C643.394202,649.368832 633.695371,653.388507 623.584,653.377502 L480.702,653.377502 C467.037417,653.44699 454.380769,646.197181 447.528194,634.374833 C440.675618,622.552484 440.675618,607.966516 447.528194,596.144167 C454.380769,584.321819 467.037417,577.07201 480.702,577.141498 L623.59,577.141498 C644.638085,577.141498 661.702478,594.201915 661.708017,615.25 L661.708017,615.245 Z" id="Path" fill="#000000" opacity="0.1"></path>
                <path d="M542.404,617.474 C542.404,617.474 520.431,623.119 502.504,622.868 C484.577,622.617 400.704,657.468 400.704,657.468 C400.704,657.468 388.632,684.99 408.328,682.713 C428.024,680.436 437.616,670.882 451.502,670.882 C465.388,670.882 509.074,666.057 509.074,666.057 L551.11,635.003 L542.404,617.474 Z" id="Path" fill="#FBBEBE"></path>
                <path d="M556.156,357.762 L516.745,365.53 L514.188,366.041 C514.188,366.041 483.028,357.761 481.995,357.066 C480.962,356.371 452.678,318.266 452.678,318.266 C452.678,318.266 466.978,318.42 478.212,311.945 C478.617,311.713 479.012,311.462 479.412,311.221 C484.350393,308.241353 488.101242,303.63974 490.024,298.202 C490.224,297.633 490.4,297.044 490.564,296.426 C491.764,291.813 491.838,286.226 490.236,279.461 C486.376,263.374 495.254,258.945 507.017,259.331 C524.011,259.891 547.142,270.496 547.142,270.496 C547.441471,275.90947 548.672168,281.230764 550.78,286.226 C550.963,286.689 551.166,287.191 551.38,287.635 C555.599856,297.158931 562.999113,304.919825 572.311,309.589 L573.556,310.207 C574.81,310.807 576.133,311.375 577.503,311.886 C607.552,323.272 556.156,357.762 556.156,357.762 Z" id="Path" fill="#FBBEBE"></path>
                <path d="M551.417,287.635 C535.976817,305.114786 510.460128,309.509454 490.062,298.202 C491.762,293.261 492.079,287.114 490.274,279.462 C480.962,240.138 547.209,270.497 547.209,270.497 C547.535855,276.421321 548.962835,282.23301 551.417,287.635 L551.417,287.635 Z" id="Path" fill="#000000" opacity="0.1"></path>
                <path d="M563.856074,252.702 C563.872107,261.995125 561.262941,271.103808 556.329,278.979 C554.722989,281.561651 552.878241,283.987947 550.819,286.226 C542.126925,295.752428 530.053525,301.50129 517.179,302.244 C516.214,302.312 515.179,302.344 514.179,302.344 C486.747569,302.344 464.51,280.106431 464.51,252.675 C464.51,225.243569 486.747569,203.006 514.179,203.006 C541.610431,203.006 563.848,225.243569 563.848,252.675 L563.856074,252.702 Z" id="Path" fill="#FBBEBE"></path>
                <path d="M556.156,357.762 L516.745,365.53 L514.188,366.041 C514.188,366.041 483.028,357.761 481.995,357.066 C480.962,356.371 452.678,318.266 452.678,318.266 C452.678,318.266 466.978,318.42 478.212,311.945 C478.617,311.713 479.012,311.462 479.412,311.221 C482.982,315.081 494.669,325.995 513.033,325.921 C515.390624,325.921891 517.745183,325.751106 520.078,325.41 C525.617,324.561 531.205,324.01 536.778,323.48 C547.461,322.361 563.798,319.118 572.378,309.68 L573.623,310.298 C574.877,310.898 576.2,311.466 577.57,311.977 C607.552,323.276 556.156,357.762 556.156,357.762 Z" id="Path" fill="#000000" opacity="0.1"></path>
                <path d="M600.652,458.481 C600.99,466.076 606.519,551.614 606.519,551.614 L434.391,551.614 L435.559,497.757 L436.524,454.679 L436.833,440.542 L438.213,391.568 L433.224,387.168 L406.107,363.273 L406.107,363.273 C406.307,362.636 413.663,340.837 412.64,337.768 C411.617,334.699 425.754,322.251 430.589,321.556 C433.336846,320.918102 436.038624,320.09591 438.676,319.095 C446.811,316.195 457.667,312.031 458.864,312.687 C460.553,313.594 477.479,312.021 478.164,311.954 L478.164,311.954 C478.164,311.954 490.651,328.099 512.964,328.002 C515.313332,327.989903 517.658494,327.802718 519.98,327.442 C525.519,326.593 531.107,326.042 536.68,325.464 C547.903,324.296 565.35,320.774 573.524,310.217 C573.524,310.217 577.471,310.381 585.056,312.687 C592.641,314.993 601.963,315.003 601.963,315.003 C606.453479,316.252828 610.834644,317.866502 615.063,319.828 C619.080484,321.735465 623.231445,323.348057 627.483,324.653 C627.483,324.653 635.415,326.718 637.49,346.723 C639.565,366.728 641.659,378.115 641.659,378.115 L600.652,413.637 C600.652,413.637 600.314,450.857 600.652,458.481 Z" id="Path" fill="#FDDB71"></path>
                <polygon id="Path" fill="#FBBEBE" points="406.116 518.156 412.147 527.816 434.738 535.777 450.265 507.464 435.954 497.804 413.016 488.839 399.916 496.424"></polygon>
                <path d="M598.926,565.75 C598.926,565.75 631.003,563.337 644.117,548.505 C657.231,533.673 690.326,525.741 690.326,525.741 C690.326,525.741 770.007,516.429 738.576,586.797 C738.576,586.797 736.511,594.729 732.376,597.142 C728.241,599.555 718.239,605.769 718.239,605.769 L595.846,595.077 L598.926,565.75 Z" id="Path" fill="#65617D"></path>
                <path d="M661.708017,615.245 C661.715141,622.742682 659.505923,630.075199 655.358,636.321 C634.765,638.145 589.158,642.43 579.615,645.093 C567.89,648.345 544.161,642.68 541.565,642.044 L541.324,641.986 C541.324,641.986 536.75,628.109 534.569,619.231 C533.604,615.197 533.092,612.196 533.729,611.974 C535.804,611.289 554.776,606.107 554.429,609.074 C554.082,612.041 611.364,586.826 611.364,586.826 L613.12,608.905 C618.939,615.564 661.708017,605.663 661.708017,615.245 Z" id="Path" fill="#000000" opacity="0.1"></path>
                <path d="M720.689,596.795 L718.276,605.77 C712.765326,611.901499 706.235776,617.033793 698.976,620.94 C687.589,626.807 667.584,636.467 667.584,636.467 C667.584,636.467 594.118,642.672 581.698,646.117 C569.278,649.562 543.407,643.01 543.407,643.01 C543.407,643.01 533.757,613.693 535.822,612.998 C537.887,612.303 556.859,607.14 556.522,610.098 C556.185,613.056 613.457,587.845 613.457,587.845 L720.689,596.795 Z" id="Path" fill="#65617D"></path>
                <path d="M516.137,674.13 C516.137,674.13 552.248,676.649 560.837,679.92 C569.426,683.191 630.781,678.665 630.781,678.665 C630.781,678.665 670.423,679.437 681.781,682.834 C693.139,686.231 689.105,648.094 668.145,643.819 C647.185,639.544 617.645,645.836 617.645,645.836 C617.645,645.836 584.314,641.542 580.27,641.011 C576.226,640.48 549.602,641.252 549.602,641.252 L516.137,674.13 Z" id="Path" fill="#FBBEBE"></path>
                <path d="M374.233,578.932 C374.233,578.932 421.962,583.226 435.086,591.052 L374.233,578.932 Z" id="Path" fill="#000000" opacity="0.1"></path>
                <path d="M671.937,547.627 C671.937,547.627 634.562,556.717 619.914,570.092 L671.937,547.627 Z" id="Path" fill="#000000" opacity="0.1"></path>
                <path d="M377.012,568.076 C377.774,568.327 398.985,571.106 398.474,573.123 C397.963,575.14 377.012,568.076 377.012,568.076 Z" id="Path" fill="#000000" opacity="0.1"></path>
                <path d="M343.68,621.286 L346.44,631.64 C346.44,631.64 352.64,636.465 354.025,638.878 C355.41,641.291 363.337,641.985 363.337,641.985 C363.337,641.985 371.617,645.777 373.692,647.843 C375.767,649.909 398.174,656.47 419.221,659.23 C440.268,661.99 479.235,667.162 487.514,669.922 C493.364068,671.735985 499.369276,673.005384 505.453,673.714 C505.453,673.714 520.97,681.994 529.253,679.929 C537.536,677.864 551.67,640.258 551.67,640.258 C551.67,640.258 497.176,627.501 495.449,623.358 C493.722,619.215 441.293,599.908 441.293,599.908 L410.249,600.641 L343.68,621.286 Z" id="Path" fill="#000000" opacity="0.1"></path>
                <path d="M341.606,622.318 L344.366,632.673 C344.366,632.673 350.581,637.498 351.961,639.911 C353.341,642.324 361.273,643.018 361.273,643.018 C361.273,643.018 369.553,646.81 371.618,648.885 C373.683,650.96 396.11,657.503 417.147,660.262 C438.184,663.021 477.17,668.194 485.447,670.954 C491.294863,672.762743 497.296875,674.02909 503.377,674.737 C503.377,674.737 518.904,683.007 527.184,680.937 C535.464,678.867 549.601,641.266 549.601,641.266 C549.601,641.266 495.101,628.509 493.38,624.366 C491.659,620.223 414.734,588.852 414.734,588.852 L390.609,583.332 L341.606,622.318 Z" id="Path" fill="#65617D"></path>
                <path d="M412.138,359.827 L406.107,363.282 L394.527,442.615 C394.527,442.615 388.38,448.482 390.3,452.265 C392.22,456.048 389.924,462.61 389.924,462.61 C389.924,462.61 379.541,467.097 381.847,469.857 C384.153,472.617 383.102,477.789 381.519,481.234 C379.936,484.679 377.341,490.884 381.519,491.926 C385.697,492.968 382.233,506.401 382.233,506.401 C382.233,506.401 396.795,504.741 395.743,513.291 C395.309,516.746 412.206,527.766 412.206,527.766 C412.206,527.766 393.006,492.929 436.022,497.754 L439.722,478.116 C439.722,478.116 443.422,467.057 439.722,463.641 C436.022,460.225 440.552,443.81 440.552,443.81 L441.363,372.583 L412.138,359.827 Z" id="Path" fill="url(#linearGradient-6)"></path>
                <path d="M402.768,462.282 C403.53,463.546 426.758,466.142 428.273,470.263 C429.788,474.384 402.768,462.282 402.768,462.282 Z" id="Path" fill="#000000" opacity="0.1"></path>
                <path d="M395.443,481.978 C395.443,481.978 398.599,472.125 406.058,473.891 C413.517,475.657 395.443,481.978 395.443,481.978 Z" id="Path" fill="#000000" opacity="0.1"></path>
                <path d="M391.41,496.366 C391.41,496.366 396.959,483.232 404.534,484.246 C412.109,485.26 391.41,496.366 391.41,496.366 Z" id="Path" fill="#000000" opacity="0.1"></path>
                <path d="M644.114,496.077 L641.692,510.552 C641.692,510.552 616.862,556.091 612.375,556.776 C607.888,557.461 583.425,526.427 583.425,526.427 L576.873,496.068 L602.668,491.175 L614.123,479.856 C614.123,479.856 643.073,482.625 644.114,496.077 Z" id="Path" fill="#FBBEBE"></path>
                <path d="M632.381,371.562 L641.693,378.114 L641.693,412.95 C641.693,412.95 648.94,412.255 647.213,416.057 C645.486,419.859 642.041,421.915 645.148,425.369 C648.255,428.823 647.56,435.369 644.801,436.061 C642.042,436.753 637.216,439.506 641.694,441.233 C646.172,442.96 648.941,446.058 648.941,448.133 C648.941,450.208 649.288,453.305 647.561,455.718 C645.834,458.131 644.116,463.65 646.181,465.725 C648.246,467.8 644.454,478.482 644.454,478.482 C644.454,478.482 651.016,495.389 644.801,500.214 C644.801,500.214 642.041,509.864 641.694,510.559 C641.694,510.559 646.046,476.986 602.65,491.182 C602.65,491.182 601.85,478.382 601.55,473.648 C601.25,468.914 605.294,467.52 603.065,464.693 C600.836,461.866 595.258,455.371 597.893,453.653 C600.528,451.935 599.62,448.828 598.578,446.406 C597.536,443.984 593.898,443.994 597.198,441.06 C600.498,438.126 602.457,435.376 600.518,433.996 C598.579,432.616 595.21,428.119 597.893,426.054 C600.576,423.989 600.653,393.977 600.653,393.977 C600.653,393.977 611.691,349.83 632.381,371.562 Z" id="Path" fill="url(#linearGradient-7)"></path>
                <path d="M628,430.91 C628,430.91 641.259,427.31 641.693,430.91 C642.127,434.51 628,430.91 628,430.91 Z" id="Path" fill="#000000" opacity="0.1"></path>
                <path d="M613.101,440.82 C613.101,440.82 631.282,436.275 633.549,439.807 C635.816,443.339 613.101,440.82 613.101,440.82 Z" id="Path" fill="#000000" opacity="0.1"></path>
                <path d="M609.057,450.412 C609.057,450.412 636.328,446.62 638.094,452.178 C639.86,457.736 609.057,450.412 609.057,450.412 Z" id="Path" fill="#000000" opacity="0.1"></path>
                <path d="M613.101,462.282 C614.114,462.533 639.359,464.299 639.861,469.095 C640.363,473.891 613.101,462.282 613.101,462.282 Z" id="Path" fill="#000000" opacity="0.1"></path>
                <rect id="Rectangle" fill="#77EAEA" x="410.256" y="477.829" width="216.239" height="122.816" rx="10.47"></rect>
                <circle id="Oval" fill="#E7EFFD" cx="518.376" cy="539.242" r="7.971"></circle>
                <path d="M446.463,402.548 C446.463,402.548 467.191,418.393 483.22,406.321 C483.22,406.321 456.123,408.782 446.463,402.548 Z" id="Path" fill="#000000" opacity="0.1"></path>
                <path d="M551.417,406.814 C551.417,406.814 572.136,422.65 588.164,410.577 C588.164,410.578 561.077,413.048 551.417,406.814 Z" id="Path" fill="#000000" opacity="0.1"></path>
                <path d="M563.856,252.702 C563.872107,261.995125 561.262941,271.103808 556.329,278.979 C555.914,265.15 552.662,251.312 545.135,239.761 C538.245,229.146 517.295,210.627 502.897,215.79 C499.842447,216.909432 497.505094,219.41878 496.605,222.545 C495.177,227.968 499.355,230.265 502.038,234.545 C506.58688,241.952666 508.364684,250.732213 507.056,259.326 C506.873191,260.482558 506.631544,261.629046 506.332,262.761 C504.064,271.272 498.873,281.009 504.232,287.986 C507.967,292.811 515.995,294.529 517.086,300.531 C517.186721,301.097748 517.220286,301.674393 517.186,302.249 C516.935,306.312 513.471,309.892 511.956,313.877 C510.18,318.577 511.184,323.247 513.027,327.966 C515.42,334.123 519.242,340.347 520.168,346.851 C521.094,353.355 519.097,359.396 516.742,365.505 C514.513,371.295 511.917,377.037 511.048,383.068 C509.379,394.532 513.586,407.791 506.368,416.843 C505.634307,417.938255 504.501847,418.703634 503.212,418.976 C498.59,419.458 499.352,411.15 495.656,408.361 C496.056,413.186 496.428,418.223 494.691,422.74 C492.954,427.257 488.38,431.097 483.591,430.335 L481.941,419.498 C478.683771,422.704028 474.763951,425.15784 470.457,426.687 C472.152481,415.162832 476.234513,404.119379 482.442,394.263 C470.293,400.111 463.209,412.772 456.889,424.68 C452.952,432.12 448.87,440.246 450.25,448.554 C450.81,451.941 452.267,455.164 452.585,458.571 C452.903,461.978 451.668,465.963 448.493,467.256 C445.723,468.385 442.493,467.034 440.493,464.776 L440.146,464.361 C439.953,464.11 439.77,463.85 439.596,463.589 C439.251086,463.065222 438.944615,462.517118 438.679,461.949 C437.816202,459.908802 437.169343,457.783889 436.749,455.609 L436.537,454.644 C433.324,440.544 430.429,426.003 432.783,411.744 C433.651,406.494 435.234,401.283 435.041,395.956 C434.896149,392.952215 434.284141,389.989343 433.227,387.174 C430.409,379.28 424.986,372.033 421.898,364.081 C421.864364,364.026865 421.838447,363.9683 421.821,363.907 C420.2,359.7 419.399,354.44 422.4,351.063 C423.944,349.316 426.26,348.438 428.19,347.203 C434.19,343.295 436.875,335.874 437.985,328.791 C438.484632,325.598583 438.736385,322.372278 438.738,319.141 C446.873,316.241 457.729,312.077 458.926,312.733 C460.615,313.64 477.541,312.067 478.226,312 C483.735923,309.037937 487.956401,304.143607 490.076,298.258 C490.276,297.689 490.452,297.1 490.616,296.482 C469.245433,284.951472 459.344879,259.659611 467.208458,236.685314 C475.072036,213.711016 498.394094,199.790498 522.348005,203.773506 C546.301916,207.756514 563.864236,228.475204 563.87,252.758 L563.856,252.702 Z" id="Path" fill="#000000" opacity="0.1"></path>
                <path d="M506.332,260.693 C504.055,269.204 498.873,278.941 504.238,285.928 C507.973,290.753 516.001,292.461 517.073,298.473 C517.932,303.298 513.673,307.273 511.958,311.809 C507.866,322.646 518.539,333.3 520.158,344.774 C521.924,357.223 512.853,368.561 511.048,381 C509.379,392.464 513.586,405.714 506.368,414.775 C505.638653,415.874574 504.504234,416.641278 503.212,416.908 C498.59,417.4 499.352,409.091 495.656,406.293 C496.056,411.118 496.428,416.155 494.691,420.672 C492.954,425.189 488.38,429.019 483.591,428.267 L481.941,417.42 C478.68466,420.627154 474.764575,423.081132 470.457,424.609 C472.152626,413.08906 476.231408,402.049172 482.433,392.194 C470.284,398.042 463.21,410.703 456.889,422.601 C452.942,430.041 448.87,438.176 450.24,446.485 C450.8,449.872 452.257,453.085 452.575,456.502 C452.893,459.919 451.658,463.884 448.483,465.187 C445.583,466.393 442.083,464.787 440.136,462.287 C438.189,459.787 437.436,456.603 436.73,453.525 C433.43,439.125 430.351,424.266 432.754,409.694 C433.622,404.435 435.205,399.224 435.012,393.906 C434.597,382.258 425.999,372.676 421.812,361.839 C420.181,357.622 419.39,352.372 422.391,348.995 C423.935,347.248 426.251,346.37 428.181,345.135 C434.174,341.217 436.866,333.806 437.966,326.723 C439.151285,319.066098 438.932041,311.257335 437.319,303.679 C434.897,292.34 429.338,281.262 430.719,269.749 C432.07,258.42 439.829,249.079 445.049,238.936 C451.765171,225.808762 454.342583,210.953425 452.441,196.331 C451.541,189.531 449.971,181.653 454.583,176.568 C460.122,170.468 470.843,172.768 477.164,167.478 C480.252,164.901 481.748,160.935 484.035,157.635 C489.886176,149.518076 500.140563,145.855539 509.81,148.429 C514.153,149.674 518.051,152.144 522.355,153.544 C528.415,155.474 534.9,155.262 541.269,156.024 C547.638,156.786 554.306,158.924 557.954,164.14 C559.884,166.919 560.762,170.306 562.538,173.182 C566.35,179.358 573.616,182.33 579.117,187.068 C588.760512,195.666071 592.325255,209.19886 588.169,221.432 C584.888,230.571 577.293,238.657 577.94,248.346 C578.201,252.331 579.87,256.24 579.349,260.187 C577.824,271.178 561.873,273.369 556.363,283 C556.807,267.212 553.777,250.952 545.163,237.722 C538.273,227.107 517.323,208.579 502.925,213.742 C499.874022,214.866812 497.538714,217.373965 496.633,220.497 C495.205,225.911 499.383,228.217 502.066,232.497 C507.255124,240.927416 508.794948,251.10484 506.332,260.693 Z" id="Path" fill="#3F3D56"></path>
                <g id="Group" opacity="0.2" transform="translate(420.398000, 184.939000)" fill="#000000">
                    <path d="M18.277,130.45 C18.3975077,125.491249 17.9343254,120.535535 16.897,115.685 C14.842,106.035 10.538,96.585 10.142,86.899 C9.582,97.688 14.629,108.129 16.897,118.744 C17.7197356,122.594306 18.1817345,126.512927 18.277,130.449 L18.277,130.45 Z" id="Path"></path>
                    <path d="M59.387,208.76 C60.227,207.226 61.095,205.701 62.031,204.215 C49.891,210.063 42.808,222.724 36.487,234.632 C32.83,241.512 29.076,249.001 29.635,256.663 C30.098,250.091 33.335,243.684 36.487,237.73 C42.335,226.719 48.84,215.081 59.387,208.76 Z" id="Path"></path>
                    <path d="M32.126,271.166 C31.759,273.772 30.466,276.242 28.092,277.217 C25.192,278.417 21.692,276.817 19.754,274.317 C17.816,271.817 17.042,268.643 16.338,265.555 C13.983,255.268 11.745,244.73 11.513,234.241 C11.281,245.754 13.732,257.353 16.338,268.663 C17.038,271.741 17.805,274.936 19.754,277.425 C21.703,279.914 25.168,281.517 28.092,280.325 C31.267,279.025 32.512,275.056 32.192,271.64 C32.1376321,271.488221 32.1151637,271.326858 32.126,271.166 Z" id="Path"></path>
                    <path d="M87.053,65.389 C86.9407451,67.8663931 86.5656405,70.3248532 85.934,72.723 C84.255,79.023 80.974,86.011 81.563,92.023 C82.026,86.773 84.535,81.061 85.934,75.801 C86.8288995,72.4064317 87.2061511,68.8962045 87.053,65.389 Z" id="Path"></path>
                    <path d="M32.618,19.339 C32.6980895,15.6587526 32.4975084,11.9777544 32.018,8.328 C31.661,5.645 31.207,2.789 31.053,0 C30.831,3.715 31.507,7.72 32.018,11.435 C32.3623525,14.055376 32.5626536,16.6926741 32.618,19.335 L32.618,19.339 Z" id="Path"></path>
                    <path d="M96.685,113.629 C96.6945515,113.542879 96.6701583,113.456427 96.617,113.388 C95.884,116.978 92.931,120.259 91.57,123.868 C90.7622977,126.022206 90.4714993,128.33592 90.721,130.623 C90.8378181,129.374216 91.1234196,128.147038 91.57,126.975 C93.278,122.43 97.534,118.416 96.685,113.629 Z" id="Path"></path>
                    <path d="M14.621,205.942 C14.196,194.294 5.608,184.712 1.41,173.875 C0.740124316,172.168913 0.286268394,170.38574 0.059,168.567 C-0.173599228,171.439816 0.289826765,174.326367 1.41,176.982 C5.54,187.674 13.897,197.082 14.573,208.47 C14.621,207.63 14.65,206.781 14.621,205.942 Z" id="Path"></path>
                    <path d="M124.766,49.758 C117.866,39.143 96.926,20.615 82.528,25.778 C79.4747759,26.9019467 77.1366524,29.4089347 76.228,32.533 C75.8877965,33.7141241 75.8513363,34.9620281 76.122,36.161 C76.1340722,35.983401 76.1697182,35.8081974 76.228,35.64 C77.1339243,32.5143851 79.4730401,30.0063331 82.528,28.885 C96.928,23.722 117.867,42.279 124.766,52.865 C132.566,64.85 135.777,79.316 135.989,93.665 C136.192,78.272 133.114,62.571 124.766,49.758 Z" id="Path"></path>
                    <path d="M158.927,72.192 C157.412,83.154 141.557,85.364 135.989,94.937 L135.989,98.102 C141.489,88.452 157.451,86.281 158.966,75.289 C159.101154,74.2092128 159.101154,73.1167872 158.966,72.037 C158.958041,72.0898059 158.94498,72.1417155 158.927,72.192 Z" id="Path"></path>
                    <path d="M167.748,33.427 C164.467,42.575 156.872,50.652 157.519,60.351 L157.519,60.776 C158.233,52.236 164.728,44.824 167.7,36.535 C169.038338,32.7480409 169.612411,28.7332738 169.389,24.723 C169.28276,27.6890375 168.729531,30.6220605 167.748,33.423 L167.748,33.427 Z" id="Path"></path>
                    <path d="M85.973,226.825 C85.2439463,227.926573 84.1099305,228.696237 82.817,228.967 C78.195,229.459 78.957,221.15 75.261,218.352 C75.361,219.452 75.444,220.562 75.502,221.672 C78.937,224.644 78.302,232.548 82.817,232.065 C84.1105325,231.801363 85.2460323,231.033929 85.973,229.932 C90.094,224.76 90.489,218.226 90.383,211.442 C90.276,217.093 89.461,222.493 85.973,226.825 Z" id="Path"></path>
                    <path d="M74.287,232.731 C72.531,237.257 67.976,241.088 63.18,240.326 C62.6333333,236.716667 62.0863333,233.101 61.539,229.479 C58.424034,232.536149 54.7073517,234.912115 50.625,236.456 C50.413,237.556 50.21,238.666 50.046,239.776 C54.3563775,238.248455 58.2794656,235.79452 61.539,232.587 C62.0856667,236.209 62.6326667,239.824667 63.18,243.434 C68.005,244.187 72.531,240.365 74.287,235.839 C75.365318,232.686257 75.7952599,229.348085 75.551,226.025 C75.5003421,228.314532 75.0733046,230.580128 74.287,232.731 Z" id="Path"></path>
                    <path d="M90.653,193.049 C90.2806446,195.963594 90.1418693,198.90329 90.238,201.84 C90.2533803,199.938357 90.3920042,198.03971 90.653,196.156 C92.38,184.296 100.689,173.44 99.936,161.676 C99.27,172.311 92.226,182.241 90.653,193.049 Z" id="Path"></path>
                </g>
                <path d="M275.667,498.142 C274.676098,499.502896 273.883204,500.997443 273.312,502.581 C273.167,502.967 273.022,503.411 272.878,503.836 C272.617606,503.708368 272.342074,503.614284 272.058,503.556 C270.854845,503.250005 269.609786,503.142591 268.372,503.238 C268.372,502.756 268.42,502.273 268.44,501.723 C268.594,496.261 267.948,488.666 262.746,491.88 C257.757,494.987 261.318,500.14 264.541,503.46 C264.821,503.749 265.091,504.01 265.361,504.271 C262.461,506.384 261.868,511.238 261.376,516.324 C260.884,521.41 256.551,526.939 253.714,530.124 C253.434,530.442 253.164,530.732 252.903,531.002 C250.568456,529.122896 247.536781,528.342198 244.585,528.86 L244.199,527.451 C241.883,519.084 237.068,504.59 230.93,501.396 L231.741,500.373 C234.347,496.957 237.28,491.891 232.947,490.597 C228.614,489.303 228.218,494.988 228.46,499.282 C228.475267,499.788832 228.51699,500.29452 228.585,500.797 C226.830976,500.878979 225.187677,501.67803 224.04,503.007 C223.84,502.756 223.615,502.496 223.374,502.216 C219.861,498.057 213.405,491.485 211.456,496.426 C209.642,501.058 215.316,507.041 219.311,510.573 L219.562,510.785 C216.879,521.67 228.575,530.529 234.886,534.408 C235.166,534.591 235.436,534.755 235.697,534.908 C227.012,545.147 221.637,564.35 221.637,564.35 L246.013,568.78 C246.013,568.78 262.158,554.855 260.092,541.76 L260.256,541.76 C276.381,538.527 280.048,521.331 277.539,511.121 L277.819,511.005 C280.755222,509.801389 283.328789,507.856311 285.288,505.36 C289.766,499.107 280.299,492.014 275.667,498.142 Z" id="Path" fill="#6C63FF"></path>
                <path d="M275.667,498.142 C274.676098,499.502896 273.883204,500.997443 273.312,502.581 C273.167,502.967 273.022,503.411 272.878,503.836 C272.617606,503.708368 272.342074,503.614284 272.058,503.556 C270.854845,503.250005 269.609786,503.142591 268.372,503.238 C268.372,502.756 268.42,502.273 268.44,501.723 C268.594,496.261 267.948,488.666 262.746,491.88 C257.757,494.987 261.318,500.14 264.541,503.46 C264.821,503.749 265.091,504.01 265.361,504.271 C262.461,506.384 261.868,511.238 261.376,516.324 C260.884,521.41 256.551,526.939 253.714,530.124 C253.434,530.442 253.164,530.732 252.903,531.002 C250.568456,529.122896 247.536781,528.342198 244.585,528.86 L244.199,527.451 C241.883,519.084 237.068,504.59 230.93,501.396 L231.741,500.373 C234.347,496.957 237.28,491.891 232.947,490.597 C228.614,489.303 228.218,494.988 228.46,499.282 C228.475267,499.788832 228.51699,500.29452 228.585,500.797 C226.830976,500.878979 225.187677,501.67803 224.04,503.007 C223.84,502.756 223.615,502.496 223.374,502.216 C219.861,498.057 213.405,491.485 211.456,496.426 C209.642,501.058 215.316,507.041 219.311,510.573 L219.562,510.785 C216.879,521.67 228.575,530.529 234.886,534.408 C235.166,534.591 235.436,534.755 235.697,534.908 C227.012,545.147 221.637,564.35 221.637,564.35 L246.013,568.78 C246.013,568.78 262.158,554.855 260.092,541.76 L260.256,541.76 C276.381,538.527 280.048,521.331 277.539,511.121 L277.819,511.005 C280.755222,509.801389 283.328789,507.856311 285.288,505.36 C289.766,499.107 280.299,492.014 275.667,498.142 Z" id="Path" fill="#000000" opacity="0.1"></path>
                <path d="M227.224,505.186 L224.377,513.524 C223.135963,512.617755 221.941131,511.649874 220.797,510.624 C216.797,507.131 211.147,501.109 212.942,496.477 C214.872,491.498 221.347,498.069 224.869,502.267 C226.278,503.932 227.224,505.186 227.224,505.186 Z" id="Path" fill="#6C63FF"></path>
                <path d="M233.226,500.438 C232.359779,501.572569 231.4352,502.66137 230.456,503.7 C230.210297,502.249447 230.039736,500.787162 229.945,499.319 C229.713,495.054 230.157,489.389 234.432,490.634 C238.707,491.879 235.832,497.02 233.226,500.438 Z" id="Path" fill="#6C63FF"></path>
                <path d="M269.935,501.751 C269.835,504.492 269.578,506.682 269.578,506.682 C268.325935,505.702747 267.139702,504.64212 266.027,503.507 C262.804,500.168 259.272,495.015 264.242,491.927 C269.441,488.695 270.08,496.289 269.935,501.751 Z" id="Path" fill="#6C63FF"></path>
                <path d="M286.745,505.341 C284.785821,507.837344 282.212245,509.782429 279.276,510.986 C278.460586,511.343339 277.622422,511.646334 276.767,511.893 L273.418,507.184 C273.772728,505.628419 274.237224,504.099926 274.808,502.61 C275.375291,501.024713 276.168472,499.529627 277.163,498.171 C281.794,492.014 291.251,499.107 286.745,505.341 Z" id="Path" fill="#6C63FF"></path>
                <path d="M224.868,502.253 C226.277,503.913 227.223,505.153 227.223,505.153 L224.376,513.491 C223.134963,512.584755 221.940131,511.616874 220.796,510.591 C221.239452,507.922267 222.339061,505.405537 223.996,503.267 C224.288,502.919 224.578667,502.581 224.868,502.253 Z" id="Path" fill="#000000" opacity="0.1"></path>
                <path d="M233.226,500.438 C232.359779,501.572569 231.4352,502.66137 230.456,503.7 C230.210297,502.249447 230.039736,500.787162 229.945,499.319 C231.128844,499.339322 232.276448,499.730717 233.226,500.438 L233.226,500.438 Z" id="Path" fill="#000000" opacity="0.1"></path>
                <path d="M247.218,533.5 L240.145,536.617 C238.851766,535.970837 237.592452,535.258905 236.372,534.484 C228.932,529.91 213.972,518.397 224.001,504.82 C234.03,491.243 242.394,515.589 245.685,527.498 C246.688,531.058 247.218,533.5 247.218,533.5 Z" id="Path" fill="#6C63FF"></path>
                <path d="M266.026,503.511 C267.056218,502.447506 268.454724,501.819109 269.934,501.755 C269.834,504.496 269.577,506.686 269.577,506.686 C268.324942,505.706738 267.13871,504.646112 266.026,503.511 L266.026,503.511 Z" id="Path" fill="#000000" opacity="0.1"></path>
                <path d="M279.276,510.986 C278.460586,511.343339 277.622422,511.646334 276.767,511.893 L273.418,507.18 C273.772728,505.624419 274.237224,504.095926 274.808,502.606 C276.969,503.874 278.561,507.02 279.276,510.986 Z" id="Path" fill="#000000" opacity="0.1"></path>
                <path d="M261.703,541.741 C261.317,541.818 260.912,541.895 260.516,541.953 C236.787,545.562 252.69,532.753 252.69,532.753 C252.69,532.753 253.761,531.788 255.209,530.167 C258.109,527.002 262.379,521.482 262.871,516.367 C263.614,508.647 264.471,501.458 273.554,503.581 C282.459,505.669 284.159,537.244 261.703,541.741 Z" id="Path" fill="#6C63FF"></path>
                <rect id="Rectangle" fill="#D4DFEC" x="215.933" y="600.819" width="45.336" height="11.918"></rect>
                <rect id="Rectangle" fill="#D4DFEC" x="208.724" y="562.073" width="59.232" height="41.601"></rect>
                <rect id="Rectangle" fill="#000000" opacity="0.1" x="215.933" y="600.819" width="45.336" height="11.918"></rect>
                <rect id="Rectangle" fill="#000000" opacity="0.1" x="208.724" y="562.073" width="59.232" height="41.601"></rect>
                <rect id="Rectangle" fill="#D4DFEC" x="218.905" y="600.819" width="45.336" height="11.918"></rect>
                <path d="M245.684,527.497 C246.649,531.058 247.218,533.497 247.218,533.497 L240.145,536.614 C238.851766,535.967837 237.592452,535.255905 236.372,534.481 C239.142,530.952 242.268,528.317 245.684,527.497 Z" id="Path" fill="#000000" opacity="0.1"></path>
                <path d="M261.703,541.74 C261.317,541.817 260.912,541.894 260.516,541.952 C236.787,545.561 252.69,532.752 252.69,532.752 C252.69,532.752 253.761,531.787 255.209,530.166 C259.638,533.712 261.452,537.707 261.703,541.74 Z" id="Path" fill="#000000" opacity="0.1"></path>
                <path d="M223.132,564.433 C223.132,564.433 236.42,516.878 255.045,531.526 C273.67,546.174 247.47,568.785 247.47,568.785 L223.132,564.433 Z" id="Path" fill="#6C63FF"></path>
                <circle id="Oval" fill="#000000" opacity="0.1" cx="229.839" cy="512.279" r="1.486"></circle>
                <circle id="Oval" fill="#000000" opacity="0.1" cx="229.713" cy="519.227" r="1.486"></circle>
                <circle id="Oval" fill="#000000" opacity="0.1" cx="272.926" cy="513.64" r="1.486"></circle>
                <circle id="Oval" fill="#000000" opacity="0.1" cx="238.157" cy="549.277" r="1.486"></circle>
                <circle id="Oval" fill="#000000" opacity="0.1" cx="269.828" cy="525.191" r="1.486"></circle>
                <circle id="Oval" fill="#000000" opacity="0.1" cx="254.427" cy="540.592" r="1.486"></circle>
                <circle id="Oval" fill="#000000" opacity="0.1" cx="234.934" cy="515.251" r="1.486"></circle>
                <circle id="Oval" fill="#000000" opacity="0.1" cx="268.834" cy="518.108" r="1.486"></circle>
                <circle id="Oval" fill="#000000" opacity="0.1" cx="263.739" cy="529.659" r="1.486"></circle>
                <circle id="Oval" fill="#000000" opacity="0.1" cx="248.096" cy="548.168" r="1.486"></circle>
                <circle id="Oval" fill="#000000" opacity="0.1" cx="244.864" cy="540.834" r="1.486"></circle>
                <circle id="Oval" fill="#000000" opacity="0.1" cx="237.163" cy="524.322" r="1.486"></circle>
                <rect id="Rectangle" fill="#000000" opacity="0.1" x="218.905" y="600.819" width="45.336" height="4.352"></rect>
                <rect id="Rectangle" fill="#D4DFEC" x="211.706" y="562.073" width="59.232" height="41.601"></rect>
                <circle id="Oval" fill="#000000" opacity="0.1" cx="250.084" cy="554.874" r="1.486"></circle>
                <circle id="Oval" fill="#000000" opacity="0.1" cx="241.139" cy="556.737" r="1.486"></circle>
                <circle id="Oval" fill="#E7EFFD" cx="182.844" cy="484.508" r="1.554"></circle>
                <circle id="Oval" fill="#E7EFFD" cx="378.422" cy="489.169" r="1.554"></circle>
            </g>
        </g>
    </g>
</svg>